<?xml version="1.0" encoding="iso-8859-1"?>
<!-- Generator: Adobe Illustrator 19.0.0, SVG Export Plug-In . SVG Version: 6.00 Build 0)  -->
<svg version="1.1" id="Layer_1" xmlns="http://www.w3.org/2000/svg" xmlns:xlink="http://www.w3.org/1999/xlink" x="0px" y="0px"
	 viewBox="0 0 512 512" style="enable-background:new 0 0 512 512;" xml:space="preserve">
<path style="fill:#4E8FE3;" d="M112.536,504.403v-86.102V376.71c0-16.845,13.656-30.501,30.501-30.501h23.852
	c18.568,0,33.621-15.052,33.621-33.621v-53.264l110.979,4.373v48.891c0,18.568,15.052,33.621,33.621,33.621h23.852
	c16.845,0,30.501,13.656,30.501,30.501v127.693L112.536,504.403L112.536,504.403z"/>
<path style="opacity:0.54;fill:#3C66B1;enable-background:new    ;" d="M368.776,346.209h-23.852
	c-18.568,0-33.621-15.052-33.621-33.621v-48.891l-110.979-4.373v1.097l83.138,3.276v48.891c0,18.568,15.052,33.621,33.621,33.621
	h23.852c16.845,0,30.501,13.656,30.501,30.501v127.693h27.841V376.71C399.278,359.864,385.622,346.209,368.776,346.209z"/>
<path style="fill:#FF7956;" d="M311.54,314.41c-0.032-0.604-0.051-1.212-0.051-1.823v-48.891l-110.979-4.373v53.264
	c0,0.612-0.018,1.219-0.051,1.822l59.264,72.232L311.54,314.41z"/>
<g style="opacity:0.34;">
	<path style="fill:#FF5023;" d="M311.09,264.484l-110.979-5.161v36.418c0,0,28.135,8.733,55.49,8.733
		c28.746,0,55.49-8.733,55.49-8.733V264.484z"/>
</g>
<path style="fill:#FF5023;" d="M154.875,206.419c-18.673,0-33.809-15.137-33.809-33.809s15.137-33.809,33.809-33.809l207.183-0.282
	c18.673,0,33.809,15.137,33.809,33.809s-15.137,33.809-33.809,33.809L154.875,206.419z"/>
<path style="fill:#FF7956;" d="M253.93,7.597h11.588c52.699,0,95.816,43.117,95.816,95.816v92.597
	c0,52.699-43.117,95.816-95.816,95.816H253.93c-52.699,0-95.816-43.117-95.816-95.816v-92.597c0-34.234,18.195-64.424,45.392-81.378
	C203.504,22.037,226.176,7.597,253.93,7.597z"/>
<g>
	<path style="opacity:0.18;fill:#891C00;enable-background:new    ;" d="M318.317,23.572c10.083,15.165,15.975,33.326,15.975,52.799
		v92.597c0,52.699-43.117,95.816-95.816,95.816h-11.588c-19.473,0-37.634-5.892-52.799-15.975
		c17.203,25.874,46.615,43.017,79.841,43.017h11.588c52.699,0,95.816-43.117,95.816-95.816v-92.597
		C361.334,70.189,344.191,40.776,318.317,23.572z"/>
	<path style="fill:#891C00;" d="M259.723,245.705c-14.98,0-29.959-5.702-41.363-17.106c-2.967-2.968-2.967-7.777,0-10.744
		c2.967-2.966,7.777-2.966,10.743,0c16.884,16.884,44.356,16.884,61.238,0c2.968-2.966,7.777-2.966,10.744,0
		c2.967,2.968,2.967,7.777,0,10.744C289.682,240.003,274.702,245.705,259.723,245.705z"/>
</g>
<g>
	<path style="fill:#3E3B43;" d="M246.191,167.219v-28.7h-59.575v28.7c0,7.804,6.326,14.13,14.13,14.13h31.314
		C239.864,181.348,246.191,175.022,246.191,167.219z"/>
	<path style="fill:#3E3B43;" d="M335.079,167.219v-28.7h-59.575v28.7c0,7.804,6.326,14.13,14.13,14.13h31.314
		C328.752,181.348,335.079,175.022,335.079,167.219z"/>
</g>
<path style="fill:#891C00;" d="M207.957,85.206c28.59,28.59,74.943,28.59,103.533,0v0.029c0,23.652,19.174,42.827,42.827,42.827
	h7.018v-24.647c0-52.699-43.117-95.816-95.816-95.816H253.93c-27.753,0-50.425,14.439-50.425,14.439
	c-27.197,16.954-45.392,47.144-45.392,81.378v27.507C203.693,130.92,207.957,85.206,207.957,85.206z"/>
<rect x="185.796" y="386.645" style="fill:#CCA400;" width="142.482" height="85.939"/>
<path d="M211.424,410.213c-0.07-0.279-0.139-0.558-0.139-0.697c0-2.228,3.274-3.761,5.712-3.761c1.533,0,2.717,0.487,3.065,1.811
	l10.658,37.756l10.588-37.756c0.348-1.324,1.533-1.811,3.065-1.811c2.438,0,5.713,1.601,5.713,3.761c0,0.21-0.07,0.418-0.14,0.697
	l-13.375,43.817c-0.627,2.09-3.205,3.065-5.852,3.065c-2.647,0-5.155-0.975-5.852-3.065L211.424,410.213z"/>
<path d="M254.891,408.54c0-1.95,2.23-2.786,4.528-2.786c2.229,0,4.528,0.836,4.528,2.786v45.281c0,1.88-2.299,2.856-4.528,2.856
	c-2.298,0-4.528-0.975-4.528-2.856L254.891,408.54L254.891,408.54z"/>
<path d="M272.305,408.54c0-1.462,1.324-2.786,3.414-2.786h14.001c8.847,0,15.813,4.248,15.813,15.674v0.417
	c0,11.424-7.175,15.813-16.37,15.813h-7.802v16.162c0,1.88-2.299,2.856-4.529,2.856c-2.298,0-4.528-0.975-4.528-2.856V408.54
	H272.305z M281.36,413.696v16.859h7.802c4.528,0,7.315-2.578,7.315-8.011v-0.836c0-5.434-2.787-8.01-7.315-8.01h-7.802V413.696z"/>
<g>
	<polygon style="opacity:0.46;fill:#FFFFFF;enable-background:new    ;" points="311.918,181.348 294.667,181.348 301.31,146.115 
		318.562,146.115 	"/>
	<polygon style="opacity:0.46;fill:#FFFFFF;enable-background:new    ;" points="222.623,181.348 205.372,181.348 212.016,146.115 
		229.268,146.115 	"/>
</g>
<path d="M301.087,228.6c2.967-2.968,2.967-7.777,0-10.744c-2.968-2.966-7.777-2.966-10.744,0c-16.882,16.884-44.354,16.884-61.238,0
	c-2.967-2.966-7.777-2.966-10.743,0c-2.967,2.968-2.967,7.777,0,10.744c11.404,11.404,26.383,17.106,41.363,17.106
	C274.702,245.705,289.682,240.003,301.087,228.6z"/>
<path d="M368.963,338.611h-23.851c-13.901,0-25.29-10.954-25.99-24.685c-0.001-0.009,0-0.018-0.001-0.027
	c-0.021-0.435-0.033-0.871-0.033-1.311v-28.147c25.141-15.286,43.273-40.99,48.38-71.071c20.283-2.66,35.997-20.044,35.997-41.042
	c0-20.49-14.962-37.541-34.533-40.826v-28.087C368.931,46.391,322.541,0,265.518,0H253.93c-4.196,0-7.597,3.4-7.597,7.597
	s3.402,7.597,7.597,7.597h11.588c48.644,0,88.22,39.575,88.22,88.22v17.034c-19.158-0.311-34.65-15.983-34.65-35.214
	c0-0.004-0.001-0.008-0.001-0.008c0.004-1.954-0.736-3.906-2.224-5.394c-2.968-2.966-7.777-2.966-10.744,0
	c-25.58,25.583-67.207,25.584-92.79,0c-2.967-2.966-7.777-2.966-10.743,0c-2.967,2.968-2.967,7.777,0,10.744
	c15.262,15.261,35.555,23.668,57.139,23.668c16.804,0,32.813-5.116,46.287-14.574c4.145,13.845,14.087,25.202,27,31.25h-0.99
	h-56.516h-29.314h-59.575c-0.414,0-0.817,0.043-1.214,0.105c-0.396-0.064-0.799-0.105-1.214-0.105h-18.48v-27.506
	c0-30.597,15.631-58.609,41.814-74.931c3.561-2.219,4.647-6.904,2.428-10.466c-2.219-3.561-6.905-4.648-10.467-2.427
	c-30.663,19.114-48.969,51.946-48.969,87.824v28.019c-20.79,2.186-37.047,19.816-37.047,41.177
	c0,21.888,17.074,39.853,38.602,41.301c4.695,26.793,19.738,50.066,40.843,65.54v33.136c0,14.349-11.674,26.023-26.024,26.023
	h-23.851c-21.008,0-38.098,17.092-38.098,38.099c0,4.197,3.402,7.597,7.597,7.597c4.196,0,7.597-3.4,7.597-7.597
	c0-12.631,10.275-22.905,22.904-22.905h23.851c16.261,0,30.348-9.467,37.051-23.175l39.723,48.415h-57.869
	c-4.196,0-7.597,3.4-7.597,7.597v85.941c0,4.197,3.402,7.597,7.597,7.597h142.487c4.197,0,7.597-3.4,7.597-7.597v-85.941
	c0-4.197-3.4-7.597-7.597-7.597h-53.759l34.035-47.444c6.884,13.181,20.68,22.204,36.553,22.204h23.851
	c12.63,0,22.904,10.275,22.904,22.905v127.693c0,4.197,3.4,7.597,7.597,7.597c4.197,0,7.597-3.4,7.597-7.597V376.709
	C407.061,355.702,389.97,338.611,368.963,338.611z M320.684,464.986H193.391v-70.747h127.293V464.986z M388.27,172.328
	c0,12.083-8.219,22.276-19.359,25.298c0.008-0.538,0.02-1.075,0.02-1.615v-48.975C380.061,150.064,388.27,160.252,388.27,172.328z
	 M283.102,146.115h44.381v21.104c0,3.602-2.931,6.533-6.533,6.533h-31.315c-3.602,0-6.533-2.931-6.533-6.533V146.115z
	 M194.213,146.115h44.381v21.104c0,3.602-2.931,6.533-6.534,6.533h-31.314c-3.602,0-6.534-2.931-6.534-6.533L194.213,146.115
	L194.213,146.115z M128.662,172.609c0-12.969,9.468-23.761,21.852-25.844v49.245c0,0.818,0.012,1.634,0.031,2.447
	C138.146,196.388,128.662,185.589,128.662,172.609z M165.709,196.011v-49.896h13.309v21.104c0,11.98,9.747,21.727,21.728,21.727
	h31.314c11.981,0,21.728-9.747,21.728-21.727v-21.104h14.12v21.104c0,11.98,9.747,21.727,21.727,21.727h31.314
	c11.98,0,21.727-9.747,21.727-21.727v-21.104h11.061v49.896c0,48.644-39.575,88.22-88.22,88.22H253.93
	C205.284,284.231,165.709,244.655,165.709,196.011z M253.93,299.425h11.588c13.553,0,26.504-2.626,38.376-7.386v20l-44.573,62.134
	l-51.212-62.417v-23.054C221.927,295.56,237.484,299.425,253.93,299.425z"/>
<path d="M112.536,410.703c-4.196,0-7.597,3.4-7.597,7.597v86.102c0,4.197,3.402,7.597,7.597,7.597s7.597-3.4,7.597-7.597v-86.102
	C120.133,414.105,116.732,410.703,112.536,410.703z"/>
<g>
</g>
<g>
</g>
<g>
</g>
<g>
</g>
<g>
</g>
<g>
</g>
<g>
</g>
<g>
</g>
<g>
</g>
<g>
</g>
<g>
</g>
<g>
</g>
<g>
</g>
<g>
</g>
<g>
</g>
</svg>
