<?xml version="1.0" encoding="iso-8859-1"?>
<!-- Generator: Adobe Illustrator 21.0.2, SVG Export Plug-In . SVG Version: 6.00 Build 0)  -->
<svg xmlns="http://www.w3.org/2000/svg" xmlns:xlink="http://www.w3.org/1999/xlink" version="1.1" id="Layer_1" x="0px" y="0px" viewBox="0 0 40 40" style="enable-background:new 0 0 40 40;" xml:space="preserve">
<g>
	<path style="fill:#DFF0FE;" d="M18.606,19.5c-0.607,0-1.061-0.374-1.348-1.111c-0.207-0.532-0.718-0.801-1.517-0.801   c-0.935,0-2.271,0.353-3.817,0.761c-1.775,0.469-3.756,0.992-5.601,1.121l0.021-0.042c2.834-0.729,5.397-1.751,7.666-2.657   c1.891-0.755,3.523-1.407,4.724-1.632l19.312-3.46c-2.322,2.528-12.453,5.987-18.969,7.744C19.032,19.437,18.853,19.5,18.606,19.5z   "/>
	<g>
		<path style="fill:#4788C7;" d="M36.161,12.525c-3.329,2.016-10.547,4.617-17.215,6.415l-0.049,0.015l-0.026,0.008    c-0.001,0-0.114,0.037-0.266,0.037c-0.157,0-0.573,0-0.881-0.793c-0.199-0.51-0.705-1.118-1.982-1.119    c-0.502,0-1.097,0.091-1.766,0.235c0.073-0.029,0.146-0.058,0.218-0.087c1.867-0.745,3.48-1.389,4.624-1.604L36.161,12.525 M39,11    l-20.357,3.648C15.926,15.157,11.346,17.662,6,19l-0.499,1c3.712,0,8.2-1.912,10.241-1.912c0.545,0,0.916,0.136,1.051,0.482    c0.466,1.197,1.263,1.43,1.813,1.43c0.351,0,0.601-0.095,0.601-0.095S38.178,14.79,39,11L39,11z"/>
	</g>
</g>
<g>
	<g>
		<path style="fill:#4788C7;" d="M5.501,12C7.43,12,9,13.57,9,15.5C9,17.43,7.43,19,5.501,19C3.57,19,2,17.43,2,15.5    C2,13.57,3.57,12,5.501,12 M5.501,11C3.019,11,1,13.019,1,15.5C1,17.981,3.019,20,5.501,20C7.982,20,10,17.981,10,15.5    C10,13.019,7.982,11,5.501,11L5.501,11z"/>
	</g>
</g>
<g>
	<path style="fill:#4788C7;" d="M15.501,27C17.43,27,19,28.57,19,30.5c0,1.93-1.57,3.5-3.499,3.5C13.57,34,12,32.43,12,30.5   C12,28.57,13.57,27,15.501,27 M15.501,26C13.019,26,11,28.019,11,30.5c0,2.481,2.019,4.5,4.501,4.5C17.982,35,20,32.981,20,30.5   C20,28.019,17.982,26,15.501,26L15.501,26z"/>
</g>
<g>
	<path style="fill:#DFF0FE;" d="M11.65,29.361c0.497-2.012,2.127-4.318,3.48-6.232c1.634-2.31,2.713-3.836,1.904-4.719   c-1.055-1.149-0.252-1.956-0.157-2.044c2.879-3.779,10.346-12.872,14.07-14.585L20.474,19.249c-0.488,0.645-1.546,1.658-2.77,2.831   C15.319,24.364,12.399,27.163,11.65,29.361z"/>
	<g>
		<path style="fill:#4788C7;" d="M29.432,3.339l-9.358,15.606c-0.506,0.658-1.58,1.686-2.715,2.774    c-0.651,0.623-1.321,1.266-1.973,1.916c0.052-0.073,0.103-0.145,0.153-0.217c1.773-2.508,2.945-4.165,1.864-5.345    c-0.599-0.653-0.423-1.096-0.185-1.339l0.064-0.059l0.052-0.069C20.828,12.005,26.042,5.98,29.432,3.339 M32,1    c-4.071,0-15.462,15-15.462,15s-1.292,1.199,0.128,2.748C17.852,20.043,11,26.13,11,30.5l1-0.5    c0.529-3.124,7.244-8.289,8.903-10.494L32,1L32,1z"/>
	</g>
</g>
<circle style="fill:#4788C7;" cx="19.5" cy="16.5" r="0.5"/>
<path style="fill:none;stroke:#4788C7;stroke-linecap:round;stroke-miterlimit:10;" d="M13.289,38.494  c-0.095-0.118-0.183-0.242-0.262-0.372c-0.312-0.513-0.491-1.115-0.491-1.759c0-0.925,0.371-1.764,0.971-2.376"/>
</svg>
